# xmcd CD database file
#
# Track frame offsets:
#	150
#	26388
#	47395
#	79825
#	103470
#	118933
#	135180
#	166975
#	196995
#	223442
#	243815
#	266880
#	278900
#	301665
#
# Disc length: 4314 seconds
#
# Revision: 0
# Processed by: cddbd v1.5.2PL0 Copyright (c) Steve Scherf et al.
# Submitted via: CDex 2.05
#
DISCID=c310d80e
DTITLE=Art Tatum - The Art Tatum Buddy DeFrancoQuartet
DYEAR=1900
DGENRE=Jazz
TTITLE0=Deep night
TTITLE1=This can't be love
TTITLE2=Memories of you
TTITLE3=Once in a while
TTITLE4=A foggy day
TTITLE5=Makin' whoopee
TTITLE6=You're mine you
TTITLE7=Lover man
TTITLE8=Deep night (alt take)
TTITLE9=This can't be love (alt take)
TTITLE10=Once in a while (alt take)
TTITLE11=This can't be love (piano solo)
TTITLE12=Memories of you (piano solo)
TTITLE13=You're mine you (piano solo)
EXTD=
EXTT0=
EXTT1=
EXTT2=
EXTT3=
EXTT4=
EXTT5=
EXTT6=
EXTT7=
EXTT8=
EXTT9=
EXTT10=
EXTT11=
EXTT12=
EXTT13=
PLAYORDER=
